<svg width="24" height="24" viewBox="0 0 24 24" fill="none" xmlns="http://www.w3.org/2000/svg">
  <path d="M12 8.5C10.07 8.5 8.5 10.07 8.5 12C8.5 13.93 10.07 15.5 12 15.5C13.93 15.5 15.5 13.93 15.5 12C15.5 10.07 13.93 8.5 12 8.5Z" stroke="currentColor" stroke-width="1.8"/>
  <path d="M19.4 13.3L20.5 12L19.4 10.7L17.8 10.9C17.63 10.47 17.41 10.07 17.13 9.71L18.1 8.4L16.6 6.9L15.29 7.87C14.93 7.59 14.53 7.37 14.1 7.2L14.3 5.6L13 4.5H11L9.7 5.6L9.9 7.2C9.47 7.37 9.07 7.59 8.71 7.87L7.4 6.9L5.9 8.4L6.87 9.71C6.59 10.07 6.37 10.47 6.2 10.9L4.6 10.7L3.5 12L4.6 13.3L6.2 13.1C6.37 13.53 6.59 13.93 6.87 14.29L5.9 15.6L7.4 17.1L8.71 16.13C9.07 16.41 9.47 16.63 9.9 16.8L9.7 18.4L11 19.5H13L14.3 18.4L14.1 16.8C14.53 16.63 14.93 16.41 15.29 16.13L16.6 17.1L18.1 15.6L17.13 14.29C17.41 13.93 17.63 13.53 17.8 13.1L19.4 13.3Z" stroke="currentColor" stroke-width="1.4" stroke-linejoin="round"/>
</svg>
